<?xml version="1.0" encoding="UTF-8" standalone="no"?>
<svg
   inkscape:export-ydpi="96"
   inkscape:export-xdpi="96"
   inkscape:export-filename="/home/alecbcs/Dropbox/Projects/Arken/assets/arken-stone-shadow.png"
   version="1.1"
   id="Layer_1"
   x="0px"
   y="0px"
   viewBox="0 0 360.00001 360"
   xml:space="preserve"
   sodipodi:docname="arken-stone-shadow.svg"
   width="360"
   height="360"
   inkscape:version="1.1.1 (c3084ef, 2021-09-22)"
   xmlns:inkscape="http://www.inkscape.org/namespaces/inkscape"
   xmlns:sodipodi="http://sodipodi.sourceforge.net/DTD/sodipodi-0.dtd"
   xmlns="http://www.w3.org/2000/svg"
   xmlns:svg="http://www.w3.org/2000/svg"
   xmlns:rdf="http://www.w3.org/1999/02/22-rdf-syntax-ns#"
   xmlns:cc="http://creativecommons.org/ns#"
   xmlns:dc="http://purl.org/dc/elements/1.1/"><metadata
   id="metadata20"><rdf:RDF><cc:Work
       rdf:about=""><dc:format>image/svg+xml</dc:format><dc:type
         rdf:resource="http://purl.org/dc/dcmitype/StillImage" /><dc:title /></cc:Work></rdf:RDF></metadata><defs
   id="defs18" /><sodipodi:namedview
   inkscape:document-rotation="0"
   pagecolor="#ffffff"
   bordercolor="#666666"
   borderopacity="1"
   objecttolerance="10"
   gridtolerance="10"
   guidetolerance="10"
   inkscape:pageopacity="0"
   inkscape:pageshadow="2"
   inkscape:window-width="1440"
   inkscape:window-height="847"
   id="namedview16"
   showgrid="false"
   inkscape:zoom="1.5488259"
   inkscape:cx="169.48322"
   inkscape:cy="179.81363"
   inkscape:window-x="39"
   inkscape:window-y="55"
   inkscape:window-maximized="0"
   inkscape:current-layer="Layer_1"
   inkscape:pagecheckerboard="0" />
<style
   type="text/css"
   id="style2">
	.st0{fill:#D1D3D4;stroke:#000000;stroke-miterlimit:10;}
	.st1{fill:none;stroke:#000000;stroke-width:6;stroke-linejoin:round;stroke-miterlimit:10;}
	.st2{fill:none;stroke:#000000;stroke-width:5;stroke-linejoin:round;stroke-miterlimit:10;}
	.st3{fill:#010101;}
</style>
<rect
   style="fill:#ffffff;fill-rule:evenodd;stroke-width:1.00104"
   id="rect41"
   width="360"
   height="360"
   x="0"
   y="0" /><polygon
   class="st0"
   points="33.2,148.4 88.4,214 108.8,316.8 43.8,201.8 "
   id="polygon4"
   transform="matrix(1.2616312,0,0,1.2616312,35.999557,-47.182961)" />
<path
   class="st1"
   d="M 175.03131,4.796245 C 193.57729,38.229472 274.9525,149.75767 274.9525,149.75767 l -3.28023,58.53969 c 0,0 -60.43214,89.95431 -96.64096,147.86319 C 147.27542,299.89179 91.258996,207.54038 91.258996,207.54038 L 77.75955,138.52916 c 0.126162,-0.12617 77.96881,-97.902589 97.27176,-133.732915 z"
   id="path6" />
<polyline
   class="st2"
   points="33.2,147.1 88.4,211 110.2,319.6 "
   id="polyline8"
   transform="matrix(1.2616312,0,0,1.2616312,35.999557,-47.182961)" />
<line
   class="st2"
   x1="147.52777"
   y1="219.02122"
   x2="274.95251"
   y2="149.75769"
   id="line10" />

<path
   style="fill:none;stroke:#000000;stroke-width:7.60439;stroke-linejoin:round;stroke-miterlimit:10"
   class="st1"
   d="M 174.5895,3.8658953 C 193.22027,37.451971 274.96751,149.49004 274.96751,149.49004 l -3.29524,58.80732 c 0,0 -60.70843,90.36556 -97.08277,148.53918 C 146.70672,300.31054 90.4342,207.53692 90.4342,207.53692 L 76.873031,138.21019 C 76.99977,138.08345 155.19829,39.860029 174.5895,3.8658953 Z"
   id="path6-3" /></svg>
