<?xml version="1.0" encoding="utf-8"?>
<!-- Generator: Adobe Illustrator 24.2.1, SVG Export Plug-In . SVG Version: 6.00 Build 0)  -->
<svg version="1.1" id="Layer_1" xmlns="http://www.w3.org/2000/svg" xmlns:xlink="http://www.w3.org/1999/xlink" x="0px" y="0px"
	 viewBox="0 0 779.3 360" style="enable-background:new 0 0 779.3 360;" xml:space="preserve">
<style type="text/css">
	.st0{fill:#D1D3D4;stroke:#000000;stroke-miterlimit:10;}
	.st1{fill:none;stroke:#000000;stroke-width:6;stroke-linejoin:round;stroke-miterlimit:10;}
	.st2{fill:none;stroke:#000000;stroke-width:5;stroke-linejoin:round;stroke-miterlimit:10;}
	.st3{fill:#010101;}
</style>
<polygon class="st0" points="33.2,148.4 88.4,214 108.8,316.8 43.8,201.8 "/>
<path class="st1" d="M110.2,41.2c14.7,26.5,79.2,114.9,79.2,114.9l-2.6,46.4c0,0-47.9,71.3-76.6,117.2
	c-22-44.6-66.4-117.8-66.4-117.8l-10.7-54.7C33.2,147.1,94.9,69.6,110.2,41.2z"/>
<polyline class="st2" points="33.2,147.1 88.4,211 110.2,319.6 "/>
<line class="st2" x1="88.4" y1="211" x2="189.4" y2="156.1"/>
<g id="SvgjsG1030" transform="matrix(1.6052162647247314,0,0,1.6052162647247314,119.93739727590126,47.65617923820932)">
	<path class="st3" d="M112.3,45.2L66,118.3h13.1l10.8-17.1h24.8v17.1h11.1V45.2L112.3,45.2L112.3,45.2z M114.8,62v28.2H96.9
		L114.8,62z M157.7,76.4V56.2h15.9c2.8,0,5.1,1,7.1,3c1.9,2,2.9,4.4,2.9,7.2c0,2.8-1,5.1-2.9,7.1c-2,2-4.3,3-7.1,3H157.7z
		 M181.9,85.8c3.8-1.6,6.9-4.2,9.3-7.7c2.4-3.5,3.6-7.5,3.6-11.8c0-5.9-2.1-10.9-6.2-15c-4.1-4.2-9.1-6.2-14.9-6.2h-27v73.1h11.1
		V87.5h12.5l16,30.8h12.5L181.9,85.8z M251.7,45.2l-25.6,31.7V45.2H215v73.1h11.1V94.6l3.4-4.2l23,27.9h14.4l-30.3-36.8l29.2-36.4
		L251.7,45.2L251.7,45.2z M283.2,45.2v73.1h37.3v-11.1h-26.2v-20h20.2V76.1h-20.2V56.2h26.2V45.2L283.2,45.2L283.2,45.2z
		 M380.3,45.2v52.3l-31.2-52.3h-11.6v73.1h11.1V66l31.3,52.3h11.6V45.2L380.3,45.2L380.3,45.2z"/>
</g>
</svg>
